<?xml version="1.0" encoding="UTF-8"?><svg id="a" xmlns="http://www.w3.org/2000/svg" viewBox="0 0 32 32"><rect width="32" height="32" fill="none"/><polygon points="5.33 9.75 5.33 15.08 10.67 12.88 10.67 7.54 16 5.34 16 26.66 0 24.01 0 11.96 5.33 9.75" fill="#444"/><polygon points="21.33 12.88 26.67 15.1 26.67 9.75 21.33 12.88" fill="#444"/><polygon points="20.8 25.86 16 5.34 16 26.66 20.8 25.86" fill="#444"/><polygon points="28.8 24.54 32 12.01 32 24.01 28.8 24.54" fill="#444"/><polygon points="10.67 12.88 5.33 15.1 5.33 9.75 10.67 12.88" fill="#444" isolation="isolate" opacity=".5"/><polygon points="26.67 9.75 26.67 15.08 21.33 12.88 21.33 7.54 16 5.34 16 26.66 32 24.01 32 11.96 26.67 9.75" fill="#444" isolation="isolate" opacity=".5"/><polygon points="11.2 25.86 16 5.34 16 26.66 11.2 25.86" fill="#fff" isolation="isolate" opacity=".4"/><polygon points="3.2 24.54 0 12.01 0 24.01 3.2 24.54" fill="#fff" isolation="isolate" opacity=".4"/><polygon points="26.67 9.75 21.33 12.88 21.33 7.54 16 5.34 10.67 7.54 10.67 12.88 5.33 9.75 0 11.96 0 12.01 0 24.01 16 26.66 32 24.01 32 12.01 32 11.96 26.67 9.75" fill="red" isolation="isolate" opacity=".4"/></svg>